<?xml version="1.0" encoding="UTF-8"?>
<svg xmlns="http://www.w3.org/2000/svg" width="203" height="63">
  <path class="overlay" d="M1 41a9 9 0 0 0 0-18V7a5 5 0 0 1 5-5h190a5 5 0 0 1 5 5v50a5 5 0 0 1-5 5H6a5 5 0 0 1-5-5V41z" fill-opacity="0"/>
  <path class="stoke" d="M3 41.9v14.6c0 2 1.6 3.5 3.5 3.5h190c1.9 0 3.5-1.6 3.5-3.5v-50c0-2-1.6-3.5-3.5-3.5H6.5C4.5 3 3 4.6 3 6.5v14.6A10.5 10.5 0 0 1 3 42zM1.5 39a7.5 7.5 0 0 0 0-15C.7 24 0 23.3 0 22.5v-16C0 2.9 3 0 6.5 0h190c3.6 0 6.5 3 6.5 6.5v50c0 3.6-2.9 6.5-6.5 6.5H6.5C2.9 63 0 60 0 56.5v-16c0-.8.7-1.5 1.5-1.5z" />
  <path class="dash" d="M30 .5c.8 0 1.5.7 1.5 1.5v4c0 .8-.7 1.5-1.5 1.5s-1.5-.7-1.5-1.5V2c0-.8.7-1.5 1.5-1.5zm0 11c.8 0 1.5.7 1.5 1.5v4c0 .8-.7 1.5-1.5 1.5s-1.5-.7-1.5-1.5v-4c0-.8.7-1.5 1.5-1.5zm0 11c.8 0 1.5.7 1.5 1.5v4c0 .8-.7 1.5-1.5 1.5s-1.5-.7-1.5-1.5v-4c0-.8.7-1.5 1.5-1.5zm0 11c.8 0 1.5.7 1.5 1.5v4c0 .8-.7 1.5-1.5 1.5s-1.5-.7-1.5-1.5v-4c0-.8.7-1.5 1.5-1.5zm0 11c.8 0 1.5.7 1.5 1.5v4c0 .8-.7 1.5-1.5 1.5s-1.5-.7-1.5-1.5v-4c0-.8.7-1.5 1.5-1.5zm0 11c.8 0 1.5.7 1.5 1.5v4a1.5 1.5 0 1 1-3 0v-4c0-.8.7-1.5 1.5-1.5z" />
  <text class="text" x="53" y="32" font-size="24" alignment-baseline="middle" letter-spacing="1">Buy Ticket</text>
</svg>
